<svg xmlns="http://www.w3.org/2000/svg" viewBox="-24169 -10283 164.1 69.1">
  <defs>
    <style>
      .cls-1 {
        fill: #fff;
      }

      .cls-2 {
        fill: #fce100;
      }
    </style>
  </defs>
  <g id="Group_368" data-name="Group 368" transform="translate(-24210 -10317)">
    <g id="Group_341" data-name="Group 341" transform="translate(41 34)">
      <g id="Group_87" data-name="Group 87">
        <g id="Group_85" data-name="Group 85">
          <path id="Path_42" data-name="Path 42" class="cls-1" d="M107,24.5a2.416,2.416,0,0,0-2.5-2.5h-3.1v5h3.1a2.362,2.362,0,0,0,2.5-2.5m.1,7.4L104,27.4h-2.5v4.5H101V21.6h3.6a2.906,2.906,0,1,1,0,5.8l3.2,4.5Z"/>
          <rect id="Rectangle_148" data-name="Rectangle 148" class="cls-1" width="0.5" height="10.3" transform="translate(111.6 21.6)"/>
          <path id="Path_43" data-name="Path 43" class="cls-1" d="M116,30.5l.4-.4a3.936,3.936,0,0,0,3.2,1.5c2.4,0,3-1.4,3-2.3,0-3.4-6.3-1.7-6.3-5.3,0-1.7,1.5-2.6,3.2-2.6a4,4,0,0,1,3.3,1.5l-.4.4a3.668,3.668,0,0,0-3-1.3c-1.5,0-2.7.9-2.7,2.2,0,2.9,6.3,1.4,6.3,5.3,0,1.2-.7,2.8-3.5,2.8a5.382,5.382,0,0,1-3.5-1.8"/>
          <path id="Path_44" data-name="Path 44" class="cls-1" d="M127.1,31.9V21.6h6.3v.5h-5.8v4.3h5.7v.5h-5.7v4.6h5.8v.4Z"/>
          <path id="Path_45" data-name="Path 45" class="cls-1" d="M137.5,28V21.6h.5V28c0,2.3,1.2,3.6,3.3,3.6,2.2,0,3.3-1.3,3.3-3.6V21.6h.5V28c0,2.6-1.3,4.1-3.8,4.1s-3.8-1.5-3.8-4.1"/>
          <path id="Path_46" data-name="Path 46" class="cls-1" d="M155.6,24.5a2.416,2.416,0,0,0-2.5-2.5H150v5h3.1a2.362,2.362,0,0,0,2.5-2.5m-6,7.4V21.6h3.6a2.9,2.9,0,1,1,0,5.8h-3.1v4.5Z"/>
        </g>
        <g id="Group_86" data-name="Group 86">
          <path id="Path_47" data-name="Path 47" class="cls-1" d="M99.9,46l1.2-1.7a4.412,4.412,0,0,0,3.3,1.4c1.2,0,1.8-.5,1.8-1.1,0-1.8-6-.5-6-4.4,0-1.7,1.5-3.1,3.9-3.1a5.9,5.9,0,0,1,4,1.4L107,40a4.3,4.3,0,0,0-3-1.1c-.9,0-1.5.4-1.5,1,0,1.6,5.9.5,5.9,4.4,0,1.9-1.4,3.3-4.1,3.3A5.894,5.894,0,0,1,99.9,46"/>
          <path id="Path_48" data-name="Path 48" class="cls-1" d="M110.8,43.3V37.1H113v6.1a2.4,2.4,0,1,0,4.8,0V37.1H120v6.2c0,2.6-1.5,4.3-4.7,4.3-3,0-4.5-1.7-4.5-4.3"/>
          <path id="Path_49" data-name="Path 49" class="cls-1" d="M132,47.5V40l-2.9,7.5h-.9L125.3,40v7.5h-2.2V37.1h3l2.5,6.5,2.6-6.5h3.1V47.5Z"/>
          <path id="Path_50" data-name="Path 50" class="cls-1" d="M146.2,47.5V40l-2.9,7.5h-1L139.4,40v7.5h-2.2V37.1h3.1l2.5,6.5,2.5-6.5h3.1V47.5Z"/>
          <rect id="Rectangle_149" data-name="Rectangle 149" class="cls-1" width="2.2" height="10.3" transform="translate(151.3 37.1)"/>
          <path id="Path_51" data-name="Path 51" class="cls-1" d="M155.8,37.1V39h3v8.5h2.3V39h3V37.1Z"/>
        </g>
      </g>
      <g id="Group_94" data-name="Group 94">
        <g id="Group_90" data-name="Group 90">
          <rect id="Rectangle_150" data-name="Rectangle 150" class="cls-2" width="45.3" height="45.3" transform="translate(2.358 34.641) rotate(-45)"/>
          <path id="Path_52" data-name="Path 52" class="cls-1" d="M34.6,69.1,0,34.5,34.6,0,69.2,34.5ZM5.7,34.5,34.6,63.3,63.5,34.5,34.6,5.7ZM34.6,56.3,12.8,34.5,34.6,12.8,56.4,34.5Zm-16-21.8,16,16,16-16-16-16Zm16,9-9-8.9,9-8.9,9,8.9Zm-3.2-9,3.2,3.2,3.2-3.2-3.2-3.2Z"/>
          <g id="Group_89" data-name="Group 89">
            <rect id="Rectangle_151" data-name="Rectangle 151" class="cls-2" width="26" height="26" transform="translate(54.425 34.467) rotate(-45)"/>
            <g id="Group_88" data-name="Group 88">
              <path id="Path_53" data-name="Path 53" class="cls-1" d="M73,56.3,51.3,34.5,73,12.8,94.8,34.6ZM57,34.5l16,16,16-16-16-16Z"/>
            </g>
          </g>
        </g>
        <g id="Group_91" data-name="Group 91">
          <path id="Path_54" data-name="Path 54" class="cls-1" d="M73,34.6l-2.7-2.8,1.1-1L73,32.4l1.7-1.6,1.1,1Z"/>
        </g>
        <g id="Group_93" data-name="Group 93">
          <g id="Group_92" data-name="Group 92">
            <path id="Path_55" data-name="Path 55" class="cls-1" d="M79.9,39H66.2L73,25.7ZM68.7,37.5h8.8L73,29Z"/>
          </g>
        </g>
      </g>
    </g>
  </g>
</svg>
